<svg height="512" viewBox="0 0 60 60" width="512" xmlns="http://www.w3.org/2000/svg"><g id="023---Cricket" fill="none"><g id="Layer_12" transform="translate(1 1)"><path id="Shape" d="m57.65 9-9.14 9.14-3.51-3.56 9.14-9.23c.1893156-.20521118.4558011-.32193289.735-.32193289s.5456844.11672171.735.32193289l2.09 2.16c.2056611.19671832.3177614.47174639.3082166.75618177-.0095448.28443537-.1398304.55132968-.3582166.73381823z" fill="#cad9fc"/><path id="Shape" d="m38 1v3h-1c-.5522847 0-1 .44771525-1 1h-6c0-.55228475-.4477153-1-1-1h-2c-.5522847 0-1 .44771525-1 1h-6c0-.55228475-.4477153-1-1-1h-1v-3c0-.55228475.4477153-1 1-1h18c.5522847 0 1 .44771525 1 1z" fill="#cad9fc"/><g fill="#e8edfc"><circle id="Oval" cx="8" cy="19" r="8"/><path id="Shape" d="m40 5v10.31l-4 4v-14.31c0-.55228475.4477153-1 1-1h2c.5522847 0 1 .44771525 1 1z"/><path id="Shape" d="m40 30.87v26.13c0 .5522847-.4477153 1-1 1h-2c-.5522847 0-1-.4477153-1-1v-22.13z"/><path id="Shape" d="m30 5v20.28l-4 4v-24.28c0-.55228475.4477153-1 1-1h2c.5522847 0 1 .44771525 1 1z"/><path id="Shape" d="m30 40.87v16.13c0 .5522847-.4477153 1-1 1h-2c-.5522847 0-1-.4477153-1-1v-12.13z"/><path id="Shape" d="m20 5v30.26l-4 4v-34.26c0-.55228475.4477153-1 1-1h2c.5522847 0 1 .44771525 1 1z"/><path id="Shape" d="m20 50.87v6.13c0 .5522847-.4477153 1-1 1h-2c-.5522847 0-1-.4477153-1-1v-2.13z"/></g><path id="Shape" d="m13.6 13.4-11.2 11.2c-.87283415-.8360914-1.54025862-1.8628983-1.95-3l10.09-10.14c1.1549402.404142 2.2017848 1.0678278 3.06 1.94z" fill="#cad9fc"/><path id="Shape" d="m15.55 16.43-10.11 10.11c-1.13042969-.4183169-2.15473766-1.0807027-3-1.94l11.16-11.2c.8692519.8507809 1.5357407 1.886402 1.95 3.03z" fill="#cad9fc"/><path id="Shape" d="m49.42 21.45-36.25 36.25c-.1877666.1893127-.4433625.2957983-.71.2957983s-.5222334-.1064856-.71-.2957983l-6.44-6.38c-.24051916-.2448412-.338671-.5959228-.26-.93.12-.55-1.84 1.71 36.59-36.72.3047033-.30789.7729935-.3845927 1.16-.19l2.2 1.1 3.53 3.53 1.1 2.18c.1895813.3912084.1046987.8600836-.21 1.16z" fill="#cad9fc"/><path id="Shape" d="m47.71 19.07-36.25 36.25c-.1877666.1893127-.4433625.2957983-.71.2957983s-.5222334-.1064856-.71-.2957983l-5-4.93c.04047275-.1810167.13049391-.3472097.26-.48l36.34-36.24c.3047033-.30789.7729935-.3845927 1.16-.19l2.2 1.1 2.48 2.48.43.86c.1871841.3865111.1066853.8493793-.2 1.15z" fill="#e8edfc"/></g><g id="Layer_12_copy" fill="#fff" transform="translate(0 1)"><path id="Shape" d="m1.45 21.56c.84745915 2.3226583 2.67734175 4.1525408 5 5 1.29808482.4651811 2.69887984.5654849 4.05.29-.3548838-.0780237-.70537665-.1748265-1.05-.29-2.32265825-.8474592-4.15254085-2.6773417-5-5-.730607-2.1830886-.48535336-4.5751055.67305992-6.5645127 1.15841329-1.9894073 3.11769521-3.3833615 5.37694008-3.8254873-5.65-1.17-11.13 4.53-9.05 10.38z"/><path id="Shape" d="m6.05 50.39c-.078671.3340772.01948084.6851588.26.93l6.44 6.38c.1877666.1893127.4433625.2957983.71.2957983s.5222334-.1064856.71-.2957983l.79-.79-5.65-5.59c-.24051916-.2448412-.338671-.5959228-.26-.93.09-.41-.68.46 11-11.14v-34.25c0-.55228475.4477153-1 1-1h1v-3c0-.55228475.4477153-1 1-1h-3.05c-.5522847 0-1 .44771525-1 1v3h-1c-.5522847 0-1 .44771525-1 1v7.87c1.1540804.93632 2.0348858 2.1659935 2.55 3.56 1.1019908 3.1529043.0771083 6.6576006-2.55 8.72v14.1c-11.63 11.6-10.86 10.75-10.95 11.14z"/></g><g id="Layer_11" transform="translate(-1)"><path id="Rectangle-path" d="m6.142 47.081h8v2h-8z" fill="#fff" transform="matrix(.708 -.706 .706 .708 -30.99 21.197)"/><g fill="#428dff"><path id="Shape" d="m10.16 49.08c-.55228475 0-1-.4477153-1-1s.44771525-1 1-1c.5522847 0 1 .4477153 1 1s-.4477153 1-1 1z"/><path id="Shape" d="m58.29 5.6c-.3751365-.37555409-.8841815-.58657331-1.415-.58657331s-1.0398635.21101922-1.415.58657331l-8.68 8.76-1.54-.77c-.7430469-.3639222-1.6334708-.2327437-2.24.33v-7.92c0-1.1045695-.8954305-2-2-2v-2c0-1.1045695-.8954305-2-2-2h-18c-1.1045695 0-2 .8954305-2 2v2c-1.1045695 0-2 .8954305-2 2v8.5c-.1900641-.2445726-.3937183-.4782742-.61-.7 0 0 0-.08-.08-.11-6.91-6.91-17.77.7-14.82 9.11.02123736.0702735.05148912.1374996.09.2.44441455 1.1845141 1.12484204 2.2663938 2 3.18 0 0 0 .08.08.11 1.77924912 1.8580486 4.28457984 2.8411876 6.852642 2.6891059 2.5680621-.1520816 4.9398447-1.4240452 6.487358-3.4791059v14.33l-4.74 4.72c-.3877236.3900375-.3877236 1.0199625 0 1.41.1877666.1893127.4433625.2957983.71.2957983s.5222334-.1064856.71-.2957983l30.67-30.58 2 1 3.3 3.3 1 2-36.19 36.32-6.46-6.39c.38772359-.3900375.38772359-1.0199625 0-1.41-1.19-1.2-2.91 1.31-1.4 2.8l6.45 6.38c.3751365.3755541.8841815.5865733 1.415.5865733s1.0398635-.2110192 1.415-.5865733l1.12-1.12c.1313358 1.0019841.9894814 1.7485708 2 1.74h2c1.1045695 0 2-.8954305 2-2v-5.72l4-4v9.72c0 1.1045695.8954305 2 2 2h2c1.1045695 0 2-.8954305 2-2v-15.72l4-4v19.72c0 1.1045695.8954305 2 2 2h2c1.1045695 0 2-.8954305 2-2v-25.72l9.13-9.12c.6077772-.6100488.7568332-1.5406413.37-2.31l-.77-1.54 8.68-8.68c.7754472-.78007491.7754472-2.03992509 0-2.82zm-29.29 22.26v-21.86h2v19.87zm4-20.86h4v12.88l-4 4zm8-1v9.89l-2 2v-11.89zm-2-2c-.7102221.00428692-1.3648954.38491093-1.72 1h-4.56c-.3551046-.61508907-1.0097779-.99571308-1.72-1v-2h8zm-18-2h8v2c-.7102221.00428692-1.3648954.38491093-1.72 1h-4.56c-.3551046-.61508907-1.0097779-.99571308-1.72-1zm0 4v29.84l-2 2v-31.84zm-15.14 19.55 9.69-9.69c.3200436.4163483.5949213.8655388.82 1.34l-9.17 9.17c-.4744612-.2250787-.92365165-.4999564-1.34-.82zm-2.23-2.76 9.16-9.16c.478903.2226366.9316651.4976476 1.35.82l-9.69 9.69c-.32235238-.4183349-.59736338-.871097-.82-1.35zm6.93-9.79-7.56 7.56c-.13064118-2.0422923.62380684-4.0420526 2.07087713-5.4891229s3.44683059-2.2015183 5.48912287-2.0708771zm-1.13 14 7.57-7.57c.1339586 2.0458231-.6204718 4.0501016-2.0701851 5.4998149s-3.4539918 2.2041437-5.4998149 2.0701851zm13.57-20h4v22.85l-4 4zm18 51h-2v-21.72l2-2zm-20 0h-2v-1.72l2-2zm10 0h-2v-11.72l2-2zm19.52-40.3-2.13-2.13 8.48-8.57 2.13 2.21z"/></g></g></g></svg>